<svg viewBox="0 0 2000 1200" xmlns="http://www.w3.org/2000/svg" xmlns:xlink="http://www.w3.org/1999/xlink"><linearGradient id="a" gradientUnits="userSpaceOnUse" x1="284.13" x2="877.7" y1="124.1" y2="263.56"><stop offset="0" stop-color="#f3f3f3"/><stop offset="1" stop-color="#fdfdfd"/></linearGradient><linearGradient id="b" gradientUnits="userSpaceOnUse" x1="855.49" x2="1966.05" y1="465.13" y2="232.05"><stop offset=".53" stop-color="#f4f4f4"/><stop offset=".83" stop-color="#f2f2f2"/></linearGradient><linearGradient id="c" gradientUnits="userSpaceOnUse" x1="118.65" x2="593.1" y1="417.06" y2="969.25"><stop offset="0" stop-color="#e4e4e4"/><stop offset=".43" stop-color="#f1f1f1"/></linearGradient><path d="m1571.5 0-.1.1-1571.4 483.8 510.8-483.9z" fill="url(#a)"/><path d="m1571.4.1-714.8 779.6-856.6-295.8z" fill="#fefefe"/><path d="m2000 0v53.7l-428.3-53.7z" fill="#fdfdfd"/><path d="m2000 53.7v471.1l-428.3-524.8z" fill="#f1f1f1"/><path d="m2000 524.8-1143.4 254.9 714.8-779.6.3-.1z" fill="url(#b)"/><path d="m2000 524.8v543.4l-1142-288.1-1.4-.4z" fill="#f8f8f8"/><path d="m552.8 1200 303.8-420.3-856.6-295.8 364.9 716.1z" fill="url(#c)"/><path d="m0 .1v483.8l510.8-483.9z" fill="#fafafa"/><path d="m2000 1200v-131.8l-1142-288.1-1.4-.4-303.8 420.3z" fill="#ededed"/><path d="m364.9 1200-364.9-716.1v716.1z" fill="#f1f1f1"/></svg>